<?xml version="1.0" encoding="UTF-8"?>
<svg id="Layer_2" data-name="Layer 2" xmlns="http://www.w3.org/2000/svg" viewBox="0 0 958.22 631.86">
  <defs>
    <style>
      .cls-1 {
        fill: none;
        stroke: #231f20;
        stroke-miterlimit: 10;
        stroke-width: 3px;
      }
    </style>
  </defs>
  <g id="Layer_1-2" data-name="Layer 1">
    <g>
      <path class="cls-1" d="m470.32,630.36h-33.42v-298.09H84.6v-33.42h352.29V35.08H1.5V1.66h468.82v628.7Z"/>
      <path class="cls-1" d="m955.3,629.48h-482.72V1.5h244.52c52.33,0,95.03,9.33,128.12,27.97,32.48,18.05,57.75,42.72,75.79,73.99,18.05,31.28,27.07,65.87,27.07,103.76,0,46.92-14.44,88.87-43.31,125.87-28.87,36.99-65.27,61.51-109.18,73.54l159.7,222.86ZM505.96,56.54v323.92h231.88L505.96,56.54Zm0,539.56h386.17l-131.73-183.16-27.97.9h-226.47v182.26Zm23.46-561.22l245.42,342.86c40.29-8.42,73.68-28.56,100.15-60.45,26.46-31.88,39.7-68.57,39.7-110.08,0-33.07-8.12-63.16-24.36-90.23-16.24-27.07-39.11-47.82-68.57-62.26-26.48-13.22-61.06-19.85-103.76-19.85h-188.57Z"/>
    </g>
  </g>
</svg>