<?xml version="1.0" encoding="UTF-8"?>
<svg id="Layer_2" data-name="Layer 2" xmlns="http://www.w3.org/2000/svg" viewBox="0 0 528.91 348.8">
  <defs>
    <style>
      .cls-1 {
        fill: none;
        stroke: #231f20;
        stroke-miterlimit: 10;
        stroke-width: 3px;
      }
    </style>
  </defs>
  <g id="Layer_1-2" data-name="Layer 1">
    <g>
      <path class="cls-1" d="m259.3,347.3h-18.38v-163.92H47.2v-18.38h193.72V19.96H1.5V1.59h257.8v345.72Z"/>
      <path class="cls-1" d="m525.99,346.82h-265.44V1.5h134.46c28.78,0,52.26,5.13,70.45,15.38,17.86,9.92,31.75,23.49,41.68,40.68,9.92,17.2,14.88,36.22,14.88,57.06,0,25.8-7.94,48.87-23.82,69.21-15.88,20.34-35.89,33.82-60.04,40.44l87.82,122.55ZM278.9,31.77v178.12h127.51L278.9,31.77Zm0,296.7h212.35l-72.44-100.72-15.38.5h-124.54v100.22Zm12.9-308.61l134.95,188.54c22.16-4.63,40.51-15.71,55.07-33.24,14.55-17.53,21.83-37.71,21.83-60.53,0-18.19-4.47-34.73-13.4-49.62s-21.5-26.3-37.71-34.23c-14.56-7.27-33.58-10.92-57.06-10.92h-103.7Z"/>
    </g>
  </g>
</svg>